<?xml version="1.0" encoding="UTF-8"?>
<svg version="1.1" xmlns="http://www.w3.org/2000/svg" width="642" height="631">
<path d="M0 0 C5.24129596 2.28998242 8.21947368 6.07569588 11 11 C11.6474522 14.02761154 11.7628263 17.02450202 11.87109375 20.11328125 C11.96874066 21.92343052 12.06656657 23.73357013 12.16455078 25.54370117 C12.20872131 26.48523041 12.25289185 27.42675964 12.29840088 28.39682007 C13.20847267 47.70427424 13.20847267 47.70427424 16.625 66.6875 C19.68523241 79.2770918 19.6465869 91.93255242 19.72314453 104.82104492 C19.8104167 117.40641547 20.9218197 129.29583422 23.9375 141.5625 C25.53227904 148.41816481 26.78238569 155.28715652 27.8125 162.25 C28.01637329 163.57173218 28.01637329 163.57173218 28.22436523 164.92016602 C29.5487104 174.29906098 27.71463917 179.12438985 22.1875 186.6875 C21.38602539 187.82541992 21.38602539 187.82541992 20.56835938 188.98632812 C14.42488119 197.54790351 14.42488119 197.54790351 8.3125 198.6875 C6.87647032 198.81028321 5.43867583 198.91357778 4 199 C3.24976563 199.06445312 2.49953125 199.12890625 1.7265625 199.1953125 C0.59347656 199.25332031 0.59347656 199.25332031 -0.5625 199.3125 C-1.24441406 199.34988281 -1.92632812 199.38726562 -2.62890625 199.42578125 C-5.54247671 198.90258655 -7.57367294 197.47914313 -10.07836914 195.96508789 C-12.72548487 194.63564456 -15.24326363 194.29784643 -18.15454102 193.88623047 C-31.34093547 192.01635997 -47.46116178 185.53883822 -57 176 C-57.1134375 175.195625 -57.226875 174.39125 -57.34375 173.5625 C-57.76095297 170.88152184 -57.76095297 170.88152184 -59.90625 169.4375 C-60.7621875 168.963125 -61.618125 168.48875 -62.5 168 C-67.82909358 164.8275892 -72.71916117 161.2930746 -77.625 157.5 C-78.36153809 156.93152344 -79.09807617 156.36304688 -79.85693359 155.77734375 C-81.90800304 154.18918129 -83.95511341 152.59611231 -86 151 C-86.9384375 150.2678125 -87.876875 149.535625 -88.84375 148.78125 C-90.28168874 147.65847592 -91.71810374 146.53374504 -93.15234375 145.40625 C-94.95668104 144.03297003 -96.80753862 142.76684223 -98.6875 141.5 C-101.32892541 139.68021613 -103.10229016 137.72155365 -105.0625 135.1875 C-107.30279535 132.41122001 -107.58673702 132.06237932 -111.3125 131.5 C-113.90956624 131.72095208 -113.90956624 131.72095208 -115 133 C-114.64978902 139.59439831 -112.70855116 144.74191887 -109.9375 150.6875 C-109.53700439 151.5645459 -109.13650879 152.4415918 -108.72387695 153.34521484 C-105.84710779 159.51579121 -102.63889887 165.23676603 -98.82421875 170.8828125 C-93.2781658 180.35979378 -91.68601481 190.19752188 -90.02148438 200.92382812 C-88.88561686 207.67401721 -87.25872068 213.4137625 -84.17456055 219.53955078 C-82.93920336 222.12735576 -82.07598369 224.69410943 -81.25 227.4375 C-79.77179179 232.12553174 -77.8830743 236.43735619 -75.76367188 240.85693359 C-71.06596686 250.7049274 -68.30548104 260.17658181 -66.109375 270.83984375 C-64.05365499 280.75814414 -61.30869322 290.91193177 -55 299 C-52.36057193 300.21560014 -51.30084576 300.11053439 -48.5546875 299.1015625 C-41.08734088 294.98690212 -35.01944965 290.01944965 -29 284 C-28.86431681 280.33655389 -28.83538574 277.49384279 -30 274 C-30.54027041 268.27313367 -29.55592955 265.49720502 -26 261 C-23.11020289 258.11020289 -20.96605188 258.69959775 -16.9375 258.6875 C-15.66777344 258.67074219 -14.39804687 258.65398437 -13.08984375 258.63671875 C-4.30212243 259.11285853 1.69464801 262.76813167 8.1875 268.4375 C20.40401628 279.29958372 20.40401628 279.29958372 35.7578125 282.8046875 C39.20381527 282.31041236 42.59582975 281.72596138 46 281 C46.03626785 277.92425309 46.03626785 277.92425309 45.75 274.5625 C46 271 46 271 47.56640625 268.99609375 C51.06604141 266.12560649 55.0228943 264.45286161 59.13085938 262.64453125 C62.65964162 261.08714352 62.65964162 261.08714352 64.9375 258.1328125 C65.01366896 255.53354658 64.93929922 252.9726705 64.8125 250.375 C64.75826003 242.98028363 66.39582087 237.03820899 71.25 231.375 C74.96699273 229.51650364 78.02022536 228.78647023 82 230 C86.8910147 233.44854748 89.28794405 237.70637256 90.5 243.5 C91.09597822 248.26782576 91.1677675 252.32892999 90 257 C87.11303411 259.7766773 84.85381113 260.34832706 80.9375 260.75 C77.32393618 261.27027076 77.32393618 261.27027076 74.75390625 263.609375 C73.868483 265.73734457 73.868483 265.73734457 73 269 C72.34 269.66 71.68 270.32 71 271 C77.6 270.34 84.2 269.68 91 269 C91.2475 267.453125 91.495 265.90625 91.75 264.3125 C92.63295496 259.91637916 93.65480215 257.1484215 97 254 C100.37729859 251.8562804 103.10484168 251.75855422 107.0625 251.8125 C108.62677734 251.82216797 108.62677734 251.82216797 110.22265625 251.83203125 C113 252 113 252 116 253 C116.268125 253.763125 116.53625 254.52625 116.8125 255.3125 C118.40510602 258.91681889 120.67420692 260.01867646 124 262 C125.61445939 263.61445939 125.32511732 265.33187417 125.4375 267.5625 C125.38595931 273.56699072 123.10130107 276.80174146 119 281 C113.67827524 285.94160156 109.4244702 286.2002917 102.3984375 286.1796875 C100 286 100 286 97.1875 284.8125 C96.465625 284.544375 95.74375 284.27625 95 284 C92.44309577 285.08255407 92.44309577 285.08255407 90 287 C88.906875 287.721875 87.81375 288.44375 86.6875 289.1875 C85.800625 289.785625 84.91375 290.38375 84 291 C85.39514503 295.43909781 87.47695811 297.98024981 91 301 C93.30368348 301.87670546 94.49319538 302.16183677 96.859375 301.40625 C97.79523438 300.95765625 97.79523438 300.95765625 98.75 300.5 C103.37620811 298.64779377 106.16743292 298.65321901 111 300 C114.16178244 302.6348187 115.53162917 304.18673581 116.546875 308.1171875 C116.95182652 312.61837941 115.98844371 315.83825401 113.4375 319.5625 C109.76949217 323.3284218 106.53160355 323.63103595 101.375 323.8125 C96.71988992 323.76056672 94.71244104 323.5752512 91.05859375 320.625 C89 318 89 318 88.6875 315.1875 C88.790625 314.465625 88.89375 313.74375 89 313 C88.46375 313.226875 87.9275 313.45375 87.375 313.6875 C83.8125101 314.15624867 82.00269342 312.87668338 79 311 C77.63755204 309.35704805 76.30135125 307.69175663 75 306 C72.88339573 304.68834743 72.88339573 304.68834743 71 304 C70.0925 304.804375 69.185 305.60875 68.25 306.4375 C62.39441571 311.62767698 53.80165955 310.59216637 46.40820312 310.23095703 C36.25585751 309.25730345 26.14715736 305.50626248 17.06640625 301.015625 C13.64326786 299.33317513 10.8939939 298.84113977 7.125 298.8125 C6.28195312 298.79832031 5.43890625 298.78414063 4.5703125 298.76953125 C-0.48770391 299.2230616 -3.82384799 301.40133017 -7.6875 304.5625 C-8.55117188 305.26890625 -9.41484375 305.9753125 -10.3046875 306.703125 C-13.84500306 309.72008957 -17.27647219 312.84496989 -20.67578125 316.01953125 C-25.64808306 320.2564338 -28.70623498 321.37272238 -35.3125 321.1875 C-36.56675781 321.16042969 -37.82101562 321.13335937 -39.11328125 321.10546875 C-40.06589844 321.07066406 -41.01851563 321.03585937 -42 321 C-43.36246989 329.57979066 -42.42639326 336.72245808 -40.4375 345.125 C-40.16518555 346.33188477 -39.89287109 347.53876953 -39.61230469 348.78222656 C-38.7610627 352.52632305 -37.88431982 356.26358935 -37 360 C-36.58161865 361.78325684 -36.58161865 361.78325684 -36.15478516 363.60253906 C-33.37212325 375.48820641 -33.37212325 375.48820641 -30.39135742 387.32519531 C-29.01762591 392.58660525 -28.0059765 397.63200962 -29.58544922 402.98364258 C-30.09097798 405.44251302 -29.68643836 406.67239813 -28.8203125 409.01171875 C-28.55089844 409.77033203 -28.28148437 410.52894531 -28.00390625 411.31054688 C-27.71386719 412.09494141 -27.42382812 412.87933594 -27.125 413.6875 C-21.78565876 428.15735855 -21.78565876 428.15735855 -23.85546875 434.70703125 C-25.20150501 436.83463695 -26.54860336 438.94248033 -28 441 C-28.556875 441.825 -29.11375 442.65 -29.6875 443.5 C-33.54861281 446.00450561 -37.46397895 446.26076974 -42 446 C-51.42112333 443.66648701 -57.95936206 434.32358734 -63.98828125 427.296875 C-66.60280085 424.31175359 -69.30038639 421.40807318 -72 418.5 C-75.82442754 414.3755598 -79.60255648 410.22449348 -83.28125 405.96875 C-86.10357659 402.73590318 -88.99926836 399.56918808 -91.88671875 396.39453125 C-93.31718179 394.77369235 -94.69836709 393.10823895 -96.03125 391.40625 C-97.83707582 389.19912956 -99.61620662 387.49016035 -101.8125 385.6875 C-108.23413398 380.13008592 -113.44204612 375.613838 -114.61328125 366.8828125 C-114.86832016 364.76475873 -114.86832016 364.76475873 -117 363 C-121.50037339 361.53737865 -125.40724018 361.30106742 -129.77734375 363.21875 C-134.06046198 365.9861098 -137.17541353 368.28682977 -138.75 373.25 C-140 377 -140 377 -142.4375 378.8125 C-153.56531115 382.52177038 -165.78776941 385.86498981 -177.1875 381.3125 C-180.73059393 379.42634279 -182.47659031 377.80852423 -184 374 C-184.17015625 373.36191406 -184.3403125 372.72382813 -184.515625 372.06640625 C-186.5111717 364.89011331 -190.41015323 358.96772096 -196 354 C-198.69567702 353.58583921 -198.69567702 353.58583921 -201 354 C-201.95285716 364.52060123 -201.95285716 364.52060123 -201 375 C-199.62055188 385.57576891 -203.80256283 396.4710512 -209.9375 404.9375 C-211.27281138 406.63995914 -212.6257764 408.32879292 -214 410 C-219.04609232 416.31627574 -222.79674944 422.27955549 -224.8125 430.1875 C-223.61575815 434.33006795 -220.81371208 435.45705702 -217.1640625 437.5078125 C-214.72598174 439.188944 -213.96547197 440.22749493 -213 443 C-212.4177482 447.22699682 -212.55430889 450.92095837 -214.1875 454.875 C-217.9652024 459.3040304 -221.9820388 460.65949823 -227.65234375 461.1328125 C-232.5105953 460.85796965 -236.37658974 458.65997356 -239.734375 455.2265625 C-241.40065791 452.29513887 -241.13573195 450.39734575 -240.875 447.0625 C-240.66704166 442.12770513 -240.66704166 442.12770513 -243.3125 438 C-244.199375 437.34 -245.08625 436.68 -246 436 C-247.02813611 434.68824014 -248.04084432 433.3630107 -249 432 C-255.08356386 433.44084407 -260.38036878 436.85396407 -265 441 C-266.42499891 443.47870917 -266.42499891 443.47870917 -267 446 C-266.35561283 447.67540664 -265.68753301 449.34183216 -265 451 C-265.29124829 455.5628899 -266.52375218 459.15754649 -269 463 C-273.60802828 465.90670842 -277.66201374 466.49268595 -283 466.4375 C-283.68578125 466.45748047 -284.3715625 466.47746094 -285.078125 466.49804688 C-291.12513422 466.49227683 -294.56638477 464.27137421 -298.875 460.25 C-300.97231209 456.05537582 -300.43767231 451.71090085 -299.3125 447.3125 C-297.61624885 444.32386702 -295.54272943 442.30056472 -293 440 C-292.4225 439.4225 -291.845 438.845 -291.25 438.25 C-288.74433776 436.85796542 -287.32718577 436.83070712 -284.5 436.6875 C-282.13123172 436.54970156 -282.13123172 436.54970156 -280 436 C-277.81378992 433.34752558 -277.81378992 433.34752558 -276 430 C-273.96469791 428.20603808 -271.86994713 426.54348503 -269.70703125 424.90625 C-267.45672104 422.39331778 -267.31055923 420.30027117 -267 417 C-268.71896484 416.85304688 -268.71896484 416.85304688 -270.47265625 416.703125 C-272.00268828 416.55293781 -273.5326319 416.40184795 -275.0625 416.25 C-275.81466797 416.188125 -276.56683594 416.12625 -277.34179688 416.0625 C-282.92026562 415.48291883 -287.88504809 414.11495191 -292 410 C-295.31236833 410.07562485 -298.61550441 410.17654345 -301.921875 410.390625 C-306.06257106 410.51241018 -307.71997536 410.23261306 -310.953125 407.546875 C-311.62859375 406.70640625 -312.3040625 405.8659375 -313 405 C-313.33 404.67 -313.66 404.34 -314 404 C-314.57752981 398.9726503 -314.5715497 395.08397356 -312.1875 390.5625 C-311.465625 389.716875 -310.74375 388.87125 -310 388 C-309.5771875 387.45988281 -309.154375 386.91976563 -308.71875 386.36328125 C-305.02499329 383.43346059 -299.45555225 384.57753929 -295 385 C-290.52958616 386.02840506 -287.63272563 387.05091155 -285 391 C-284.8046875 393.69921875 -284.8046875 393.69921875 -284.875 396.6875 C-284.89304687 397.68136719 -284.91109375 398.67523438 -284.9296875 399.69921875 C-284.95289063 400.45847656 -284.97609375 401.21773438 -285 402 C-283.35 402.33 -281.7 402.66 -280 403 C-280 401.68 -280 400.36 -280 399 C-271.58213831 395.60252069 -264.09520367 394.13983345 -255 395 C-254 396 -254 396 -253.9375 398.5625 C-253.958125 399.366875 -253.97875 400.17125 -254 401 C-247.37822074 400.69343615 -242.77874846 399.25711277 -237 396 C-237.165 395.38125 -237.33 394.7625 -237.5 394.125 C-238.78400281 386.09998244 -238.50767185 379.93348722 -234 373 C-233.67 372.67 -233.34 372.34 -233 372 C-231.43646692 362.75575335 -231.67888552 353.16040882 -231.48242188 343.81640625 C-231.44826172 342.61113281 -231.41410156 341.40585937 -231.37890625 340.1640625 C-231.3538501 339.07561035 -231.32879395 337.9871582 -231.30297852 336.86572266 C-231.00778101 334.07359665 -230.43930956 332.38049347 -229 330 C-228.175 330.144375 -227.35 330.28875 -226.5 330.4375 C-221.87411401 329.85926425 -220.02193766 327.78267276 -216.734375 324.62890625 C-212.89767906 321.0255229 -208.56161458 321.42265728 -203.51171875 321.47265625 C-197.33868423 322.39964141 -193.54091903 325.932916 -189 330 C-187.57300781 331.22589844 -187.57300781 331.22589844 -186.1171875 332.4765625 C-181.1762848 336.82509539 -176.61118334 341.31435633 -172.4375 346.40625 C-169.90126046 349.21816775 -167.69494111 350.35194269 -164 350.5625 C-157.54636811 350.44688119 -153.09705851 346.57943808 -148 343 C-145.69249996 341.61230067 -143.3540516 340.30780645 -141 339 C-141.26980862 332.22780371 -144.09852907 328.36402006 -148.125 323.0625 C-148.9603125 321.92264648 -148.9603125 321.92264648 -149.8125 320.75976562 C-152.56608261 317.04496697 -155.41395768 313.47809272 -158.4921875 310.02734375 C-162.97043717 304.99352175 -166.82050237 299.53086389 -170.75 294.06640625 C-174.07347486 289.48920984 -177.54150338 285.18847212 -181.30761719 280.97021484 C-184.14483603 277.66722061 -186.61991242 274.11990621 -189.125 270.5625 C-193.61362273 264.26001331 -198.20513012 258.05905163 -202.9375 251.9375 C-206.27372417 247.61804004 -209.56087944 243.31276492 -212.5625 238.75 C-213.00335938 238.08613281 -213.44421875 237.42226562 -213.8984375 236.73828125 C-214.88908515 235.1750252 -215.79433533 233.55842848 -216.6875 231.9375 C-220.10598638 229.07336276 -223.18892275 229.93059051 -227.5 230.1484375 C-228.325 230.09945312 -229.15 230.05046875 -230 230 C-232.0625 227.625 -232.0625 227.625 -233 225 C-233.66 224.34 -234.32 223.68 -235 223 C-235.66666667 221 -236.33333333 219 -237 217 C-237.45375 216.2575 -237.9075 215.515 -238.375 214.75 C-241.51538063 209.4355097 -244.03141157 203.83235176 -244.4375 197.625 C-244.69913691 193.96579814 -244.69913691 193.96579814 -246.9375 191.5625 C-250.63794473 189.67451799 -253.68135653 189.43371024 -257.79296875 189.2734375 C-260 189 -260 189 -262 187 C-264.37098906 186.71891337 -264.37098906 186.71891337 -267 186.8125 C-267.886875 186.81894531 -268.77375 186.82539063 -269.6875 186.83203125 C-272.02606345 186.85418073 -272.02606345 186.85418073 -274 188 C-278.31401503 188.09113237 -282.62656685 187.85356761 -286.9375 187.6875 C-288.12408203 187.65205078 -289.31066406 187.61660156 -290.53320312 187.58007812 C-307.11725609 186.96990155 -307.11725609 186.96990155 -314.6105957 183.94677734 C-317.7184893 182.71530586 -320.29041965 182.77110002 -323.625 182.8125 C-324.85605469 182.82667969 -326.08710938 182.84085938 -327.35546875 182.85546875 C-330.58150719 182.98340382 -333.73188377 183.25699703 -336.9375 183.625 C-341.49787181 184.09425565 -344.59907296 183.41724769 -349 182 C-352.55905852 181.458494 -356.12210919 181.00035423 -359.6953125 180.5625 C-365.07157659 179.64739122 -368.27606304 178.35123096 -371.67578125 173.96484375 C-375.1930002 168.74607935 -378.38698475 163.19665833 -380.3125 157.1875 C-382.19011115 151.68060389 -385.74244452 146.98003987 -388.94140625 142.171875 C-389.62074219 141.12515625 -390.30007813 140.0784375 -391 139 C-391.44214844 138.34515625 -391.88429688 137.6903125 -392.33984375 137.015625 C-393 135 -393 135 -392.5 131.6875 C-391.92314715 127.43321023 -392.56429849 125.01996422 -394 121 C-394.5878125 119.2675 -394.5878125 119.2675 -395.1875 117.5 C-396.79749359 114.39104686 -397.75926152 113.12332318 -400.2265625 110.859375 C-405.23419079 106.14414373 -408.13770425 100.24831558 -411.375 94.25 C-412.00277344 93.11433594 -412.63054687 91.97867188 -413.27734375 90.80859375 C-417.5523637 83.02491811 -420.46254166 77.04735071 -419 68 C-417.3611119 64.73825205 -415.52565883 61.81346574 -413.43359375 58.82421875 C-411.6578174 55.32589095 -412.06650388 53.7390304 -413 50 C-413.24139614 46.13766179 -413.08594086 42.50609618 -412.4375 38.6875 C-411.77180827 35.91032625 -411.77180827 35.91032625 -413 33 C-416.4163657 31.46691562 -419.07182912 32.31041625 -422.5625 33.3125 C-423.98755859 33.70888672 -423.98755859 33.70888672 -425.44140625 34.11328125 C-428.1922769 34.9464328 -428.1922769 34.9464328 -431 37 C-433.04296875 37.1953125 -433.04296875 37.1953125 -435.1875 37.125 C-436.445625 37.08375 -437.70375 37.0425 -439 37 C-440.42041821 34.15916359 -440.31452272 32.14522722 -440 29 C-436.75481618 24.66742475 -432.52305576 23.36529291 -427.5625 21.75 C-426.76497314 21.48840088 -425.96744629 21.22680176 -425.14575195 20.95727539 C-417.70303979 18.66393793 -409.46194021 16.74718823 -402.20703125 20.41015625 C-400 22 -400 22 -399 24 C-398.60404034 27.4873811 -398.48407572 30.99527997 -398.3125 34.5 C-398.25255859 35.45648438 -398.19261719 36.41296875 -398.13085938 37.3984375 C-397.88874185 42.29385481 -397.99712738 46.58965352 -399.1171875 51.375 C-400.05515273 55.52326534 -399.99815854 57.702931 -397.8125 61.5 C-397.24917969 62.49773438 -396.68585938 63.49546875 -396.10546875 64.5234375 C-395.40444859 65.68277745 -394.70254835 66.84158548 -394 68 C-393.14113625 69.47089268 -392.28311609 70.94227814 -391.42578125 72.4140625 C-378.42384727 94.87273111 -378.42384727 94.87273111 -357 108 C-354.3513378 108.35370334 -351.7192137 108.66829045 -349.0625 108.9375 C-338.57451921 110.00700999 -331.65887537 114.23611109 -323.32421875 120.44921875 C-317.66878194 124.22267827 -311.70926679 125.0708369 -305 125 C-300.69432987 123.35101995 -298.80602345 120.55429637 -296 117 C-292.83990467 115.94663489 -290.4446864 115.79967112 -287.125 115.75 C-286.09632813 115.72421875 -285.06765625 115.6984375 -284.0078125 115.671875 C-279.58167956 116.15472587 -277.10068151 117.79863245 -274.12109375 121.05078125 C-273.56550781 121.79714844 -273.00992188 122.54351562 -272.4375 123.3125 C-271.83808594 124.11171875 -271.23867188 124.9109375 -270.62109375 125.734375 C-269.37152975 127.48075361 -268.17416451 129.26456059 -267 131.0625 C-265.36701437 133.46094764 -263.75326749 135.43076454 -261.8125 137.5625 C-256.97296426 142.95963442 -253.03645221 148.99566293 -249 155 C-247.35 154.67 -245.7 154.34 -244 154 C-243.51789063 154.91523438 -243.03578125 155.83046875 -242.5390625 156.7734375 C-241.90123206 157.9740595 -241.26320074 159.1745748 -240.625 160.375 C-240.30789062 160.97828125 -239.99078125 161.5815625 -239.6640625 162.203125 C-238.2867938 164.78550382 -237.08169419 166.91830581 -235 169 C-233.906875 169.185625 -232.81375 169.37125 -231.6875 169.5625 C-226.97163654 171.40088745 -226.31283619 173.37512787 -224.1875 177.765625 C-223.01484141 180.24529702 -223.01484141 180.24529702 -220.375 182.5625 C-217.81950044 185.18524955 -217.13539409 187.38033084 -215.96875 190.78515625 C-212.31759537 199.13275576 -204.531277 205.66414612 -198.01245117 211.82666016 C-194.37310921 215.33702698 -191.7485164 218.83337609 -189.17749023 223.17919922 C-187.51659842 225.74750342 -185.46809059 227.55366277 -183.125 229.5 C-180.06808285 232.13883878 -177.23116918 234.7272556 -174.625 237.8125 C-171.50837818 241.49442792 -168.20353155 244.947698 -164.8125 248.375 C-164.30090332 248.89940674 -163.78930664 249.42381348 -163.26220703 249.96411133 C-160.64667471 252.58691615 -158.30191637 254.38304324 -155 256 C-154.62875 256.99 -154.2575 257.98 -153.875 259 C-152.02888586 263.87253077 -148.31201112 266.85499732 -144.6171875 270.39453125 C-141.43422371 273.56324296 -138.73473185 276.97316537 -135.984375 280.515625 C-133.97775971 283.02784414 -131.86606665 285.38602342 -129.6875 287.75 C-124.59870847 293.33717833 -119.98023802 299.2478402 -115.36865234 305.22851562 C-114.0509824 306.93401207 -112.7241526 308.63193758 -111.39453125 310.328125 C-106.43629187 316.67818437 -101.77106875 323.15852449 -97.21484375 329.8046875 C-91.66331542 337.8137707 -85.83016473 345.37783952 -79.2109375 352.53125 C-76.16384063 355.93366205 -73.39510492 359.5316804 -70.62890625 363.1640625 C-70.09136719 363.76992188 -69.55382812 364.37578125 -69 365 C-68.34 365 -67.68 365 -67 365 C-67.51820083 361.56314813 -69.10306313 359.10318127 -70.97367859 356.22172546 C-76.72464937 347.33075574 -80.06153464 338.24789317 -83.1875 328.1875 C-83.67207446 326.67326581 -84.15840115 325.15959123 -84.64648438 323.64648438 C-85.62050078 320.62156686 -86.58317176 317.59335659 -87.53930664 314.56274414 C-88.76262114 310.70767718 -90.05042459 306.8772911 -91.35424805 303.04882812 C-94.19970332 294.67574809 -96.59115657 286.2835615 -98.6875 277.6875 C-101.52212712 266.35618694 -104.60689119 255.11041752 -107.91421509 243.90786743 C-108.37980215 242.33063653 -108.84292883 240.75267676 -109.30331421 239.17391968 C-112.3224413 228.84313677 -115.86316622 218.93726283 -120 209 C-120.95641597 206.6302318 -121.90955829 204.25913968 -122.859375 201.88671875 C-123.33044678 200.71447754 -123.80151855 199.54223633 -124.28686523 198.33447266 C-143.15952002 151.29297137 -143.15952002 151.29297137 -148.6875 130.73046875 C-152.05470974 118.47438127 -155.67680217 107.34549029 -162.31884766 96.44238281 C-166.36039073 89.80363713 -168.39693128 83.93862553 -168 76 C-166 75.125 -166 75.125 -163 75 C-159.21750325 77.20391443 -155.95678363 80.11630401 -152.75 83.078125 C-149.34331652 85.4589322 -145.98308641 86.18066807 -142 87.0625 C-126.63105337 90.90950567 -113.02055076 99.3880891 -99.92578125 108.08203125 C-96.80363546 110.12872495 -93.6114001 111.9265467 -90.33203125 113.703125 C-77.14684892 121.03558821 -65.35202163 128.90027379 -55.41015625 140.265625 C-51.38250697 145.10758853 -51.38250697 145.10758853 -46 148 C-43.60509014 148.06970052 -41.20832309 148.08448003 -38.8125 148.0625 C-37.54019531 148.05347656 -36.26789063 148.04445312 -34.95703125 148.03515625 C-33.98121094 148.02355469 -33.00539063 148.01195312 -32 148 C-29.00862733 136.88206489 -32.78773873 128.69295975 -36.99902344 118.49560547 C-39.66695296 111.84400167 -41.92707333 105.03443077 -44.22753906 98.24902344 C-44.92749047 96.21111182 -45.65734578 94.18727516 -46.3984375 92.1640625 C-48.6480273 85.68705562 -49.93337277 80.47416111 -47 74 C-44.49140142 71.49140142 -42.70076146 71.65103072 -39.265625 71.44140625 C-35.73486576 72.31192103 -33.35503575 74.33104264 -31 77 C-29.72388756 79.58909035 -28.75974376 81.85620595 -27.875 84.5625 C-27.62621094 85.26705322 -27.37742187 85.97160645 -27.12109375 86.69750977 C-25.99591015 89.91237211 -24.95490618 93.14530229 -23.9453125 96.3984375 C-21.86364093 103.09075354 -19.24183288 108.4007806 -15 114 C-13.35 113.67 -11.7 113.34 -10 113 C-9.66114962 110.47980028 -9.32879665 107.95901484 -9 105.4375 C-8.90460938 104.73302734 -8.80921875 104.02855469 -8.7109375 103.30273438 C-7.63749659 94.98356734 -8.31951811 87.75082853 -9.9375 79.5625 C-11.68066095 70.22929441 -12.44116996 61.14186119 -12.71118164 51.66162109 C-13.05998533 39.55584732 -13.97521846 27.90907503 -17.44921875 16.2578125 C-18.28859056 12.81698338 -18.05503755 10.36293218 -17 7 C-12.47826262 0.05196452 -7.97535879 -1.05222125 0 0 Z M-375.45703125 114.7734375 C-377.472829 116.37586913 -379.2852711 118.07950364 -381 120 C-380.59587891 120.74636719 -380.59587891 120.74636719 -380.18359375 121.5078125 C-378.26441317 125.54885941 -376.82298408 129.7783201 -375.29882812 133.98046875 C-374.11874699 137.18570192 -372.90156914 140.19268306 -371.34375 143.2421875 C-370.09035051 145.81457134 -369.68811734 147.45588331 -369.4375 150.25 C-368.14575134 156.75290563 -363.09630535 161.10412496 -358 165 C-353.05245063 167.36711681 -348.94733928 166.90007636 -343.6875 166.0625 C-334.11484969 164.76862217 -328.00535771 164.40315005 -319.82421875 169.98046875 C-317.92984287 171.24139295 -317.92984287 171.24139295 -315.125 170.9375 C-314.09375 170.628125 -313.0625 170.31875 -312 170 C-310.31277995 169.7274281 -308.62525448 169.45674296 -306.9375 169.1875 C-302.71205407 168.32204722 -299.94195735 167.32156475 -297 164 C-295.56922855 161.76675733 -295.56922855 161.76675733 -296 159 C-300.93964528 150.19454537 -308.16767321 145.6311512 -317.125 141.6875 C-324.06792736 138.5272664 -330.2606571 135.1202239 -336.48828125 130.69921875 C-338.74911157 129.16973012 -340.87718642 128.07316944 -343.375 127 C-346.59372294 125.52612892 -347.9821 123.87326403 -349.9375 120.9375 C-353.18269368 116.19723064 -356.5749608 115.26399723 -362 114 C-362.69609375 113.75121094 -363.3921875 113.50242187 -364.109375 113.24609375 C-368.92733955 111.61209415 -371.41274985 112.05257084 -375.45703125 114.7734375 Z " fill="#000000" transform="translate(479,0)"/>
<path d="M0 0 C2.56042048 2.69747461 4.25406761 5.7324729 6 9 C6.42023438 9.76054687 6.84046875 10.52109375 7.2734375 11.3046875 C15.53326925 27.77174062 18.13434967 46.31298218 20.82006836 64.32568359 C22.31581698 74.29545542 24.19071471 84.10026695 26.50775146 93.91281128 C26.97261316 95.88387675 27.42446207 97.85799809 27.87548828 99.83227539 C28.69151032 103.30214095 29.58409896 106.74282833 30.5 110.1875 C30.76296875 111.33541016 31.0259375 112.48332031 31.296875 113.66601562 C33.12249239 120.35349968 34.88896265 123.54023689 41.00390625 127.03515625 C42.02556885 127.51992432 43.04723145 128.00469238 44.09985352 128.50415039 C52.47034335 132.82151643 57.04705751 141.37992106 60 150 C62.50055355 158.01853484 59.53689635 164.68328859 56 172 C55.22202162 173.10838486 54.41697823 174.19945999 53.5625 175.25 C51.59632023 178.71047639 52.29118496 180.43256263 53.21411133 184.17333984 C55.03380246 190.71834882 57.1245079 197.18082042 59.18920898 203.65161133 C59.79741553 205.56226411 60.40071574 207.47447649 61.00390625 209.38671875 C61.36299072 210.51295654 61.7220752 211.63919434 62.09204102 212.79956055 C65.9049064 226.23942403 65.63270978 242.04657298 60.77734375 255.125 C59.84150349 258.58619816 59.9871261 260.5662212 61 264 C62.77070472 266.75639388 62.77070472 266.75639388 65 269.25 C69.09219235 274.07294098 70.29978799 276.32893058 70.21875 282.609375 C69.87793343 286.33401318 68.86103857 288.7431825 67 292 C61.45527853 296.07981975 51.56175189 294.66739307 45 294 C40.27725466 292.93905612 36.27644226 291.24794211 32 289 C30.91847656 288.43796875 29.83695313 287.8759375 28.72265625 287.296875 C13.50988365 278.44453997 1.85761888 264.38333313 -9.44921875 251.12890625 C-14.47641436 245.36473956 -19.67351495 240.63946504 -25.91796875 236.22265625 C-28.08990844 234.65632712 -30.09130801 233.10629828 -32.11328125 231.37109375 C-37.15485622 226.80067981 -37.15485622 226.80067981 -43.40234375 224.8828125 C-45.63877743 225.39966577 -45.63877743 225.39966577 -47.7890625 226.2265625 C-54.79785394 228.6784012 -62.43899656 227.01310496 -69 224 C-74.86865463 220.39878012 -78.05703511 215.18955057 -79.98046875 208.68359375 C-82.19776465 199.03367218 -82.41398129 190.72112137 -81 181 C-84.05105231 178.89332102 -86.56827293 177.15859362 -90.0625 175.875 C-95.07397549 172.67618586 -97.05880168 167.78715645 -98.47265625 162.09814453 C-99.4698027 157.42570492 -100.2340791 152.71488968 -101 148 C-103.2042883 134.94063156 -112.44773521 125.35384078 -120.8828125 115.6953125 C-133.83411377 100.80260602 -133.83411377 100.80260602 -133.3984375 91.1171875 C-132.7675004 87.76456092 -131.1773324 85.56156753 -129 83 C-124.08705832 80.54352916 -117.39675693 81.59754461 -112.3125 83.0625 C-108.84922968 85.08818641 -106.15866214 87.36364633 -103.19921875 90.046875 C-96.47078677 96.02239186 -89.47470794 100.42678935 -81.3125 104.125 C-66.67508128 110.78703445 -57.40699019 121.2873084 -47.9128418 133.99780273 C-44.16895804 138.93849578 -40.00579502 143.41078335 -35.7487793 147.90966797 C-31.73911129 152.16006984 -27.99203566 156.55393017 -24.34375 161.12109375 C-22.52253754 163.35814972 -20.67411534 165.54729845 -18.78125 167.72265625 C-18.22767822 168.35945312 -17.67410645 168.99625 -17.10375977 169.65234375 C-16.009225 170.90708954 -14.91086259 172.15850865 -13.80834961 173.40625 C-10 177.78061348 -10 177.78061348 -10 180 C-9.01 180.33 -8.02 180.66 -7 181 C-5.01953125 183.1171875 -5.01953125 183.1171875 -2.8125 185.875 C-2.0184375 186.86113281 -1.224375 187.84726562 -0.40625 188.86328125 C2.55754646 192.72680164 5.3026887 196.71889766 7.98046875 200.78515625 C10.43585575 203.47800814 12.50851811 204.12589492 16 205 C15.17434937 197.80504449 13.11844251 191.22989652 10.73828125 184.43359375 C7.32897767 174.44179105 4.73877786 164.38095064 2.39788818 154.09347534 C1.26596888 149.12566654 0.09933212 144.16607388 -1.0703125 139.20703125 C-1.30793304 138.19882828 -1.54555359 137.19062531 -1.79037476 136.15187073 C-4.77580517 123.59034326 -8.15711408 111.13637026 -11.55957031 98.68261719 C-11.78339386 97.8625972 -12.00721741 97.04257721 -12.23782349 96.19770813 C-12.65329043 94.67889977 -13.07068248 93.16061606 -13.490448 91.64299011 C-16.09522256 82.16030386 -16.8216621 73.39151091 -15.41015625 63.59375 C-13.91476243 53.09075568 -14.45158747 44.81145497 -16.96484375 34.51953125 C-19.21541101 25.20198452 -20.68831326 14.10268445 -17 5 C-12.24987404 -0.13527131 -6.75392706 -2.25130902 0 0 Z " fill="#000000" transform="translate(488,337)"/>
</svg>
