<svg xmlns="http://www.w3.org/2000/svg" viewBox="0 0 1600 1000" width="1600" height="1000" aria-hidden="true"><line x1="620.0" y1="222.0" x2="1280.0" y2="222.0" stroke="#0A0A0A" stroke-width="1.4" stroke-linecap="round" opacity="0.32"/><line x1="620.0" y1="248.0" x2="1280.0" y2="248.0" stroke="#0A0A0A" stroke-width="1.4" stroke-linecap="round" opacity="0.32"/><line x1="620.0" y1="222.0" x2="620.0" y2="248.0" stroke="#0A0A0A" stroke-width="1.4" stroke-linecap="round" opacity="0.32"/><line x1="1280.0" y1="222.0" x2="1280.0" y2="248.0" stroke="#0A0A0A" stroke-width="1.4" stroke-linecap="round" opacity="0.32"/><line x1="740.0" y1="248.0" x2="450.0" y2="722.0" stroke="#0A0A0A" stroke-width="1.4" stroke-linecap="round" opacity="0.32"/><line x1="870.0" y1="248.0" x2="620.0" y2="722.0" stroke="#0A0A0A" stroke-width="1.4" stroke-linecap="round" opacity="0.32"/><line x1="1160.0" y1="248.0" x2="1450.0" y2="722.0" stroke="#0A0A0A" stroke-width="1.4" stroke-linecap="round" opacity="0.32"/><line x1="1030.0" y1="248.0" x2="1280.0" y2="722.0" stroke="#0A0A0A" stroke-width="1.4" stroke-linecap="round" opacity="0.32"/><line x1="430.0" y1="722.0" x2="640.0" y2="722.0" stroke="#0A0A0A" stroke-width="1.4" stroke-linecap="round" opacity="0.32"/><line x1="430.0" y1="740.0" x2="640.0" y2="740.0" stroke="#0A0A0A" stroke-width="1.4" stroke-linecap="round" opacity="0.32"/><line x1="430.0" y1="722.0" x2="430.0" y2="740.0" stroke="#0A0A0A" stroke-width="1.4" stroke-linecap="round" opacity="0.32"/><line x1="640.0" y1="722.0" x2="640.0" y2="740.0" stroke="#0A0A0A" stroke-width="1.4" stroke-linecap="round" opacity="0.32"/><line x1="1260.0" y1="722.0" x2="1470.0" y2="722.0" stroke="#0A0A0A" stroke-width="1.4" stroke-linecap="round" opacity="0.32"/><line x1="1260.0" y1="740.0" x2="1470.0" y2="740.0" stroke="#0A0A0A" stroke-width="1.4" stroke-linecap="round" opacity="0.32"/><line x1="1260.0" y1="722.0" x2="1260.0" y2="740.0" stroke="#0A0A0A" stroke-width="1.4" stroke-linecap="round" opacity="0.32"/><line x1="1470.0" y1="722.0" x2="1470.0" y2="740.0" stroke="#0A0A0A" stroke-width="1.4" stroke-linecap="round" opacity="0.32"/><line x1="620.0" y1="482.0" x2="1280.0" y2="482.0" stroke="#0A0A0A" stroke-width="1.4" stroke-linecap="round" opacity="0.32"/><line x1="620.0" y1="508.0" x2="1280.0" y2="508.0" stroke="#0A0A0A" stroke-width="1.4" stroke-linecap="round" opacity="0.32"/><line x1="620.0" y1="482.0" x2="620.0" y2="508.0" stroke="#0A0A0A" stroke-width="1.4" stroke-linecap="round" opacity="0.32"/><line x1="1280.0" y1="482.0" x2="1280.0" y2="508.0" stroke="#0A0A0A" stroke-width="1.4" stroke-linecap="round" opacity="0.32"/><line x1="870.0" y1="248.0" x2="1280.0" y2="482.0" stroke="#0A0A0A" stroke-width="1.4" stroke-linecap="round" opacity="0.32"/><line x1="1030.0" y1="248.0" x2="620.0" y2="482.0" stroke="#0A0A0A" stroke-width="1.4" stroke-linecap="round" opacity="0.32"/><line x1="620.0" y1="508.0" x2="620.0" y2="722.0" stroke="#0A0A0A" stroke-width="1.4" stroke-linecap="round" opacity="0.32"/><line x1="1280.0" y1="508.0" x2="1280.0" y2="722.0" stroke="#0A0A0A" stroke-width="1.4" stroke-linecap="round" opacity="0.32"/><line x1="470.0" y1="300.0" x2="620.0" y2="222.0" stroke="#0A0A0A" stroke-width="1.4" stroke-linecap="round" opacity="0.32"/><line x1="1130.0" y1="300.0" x2="1280.0" y2="222.0" stroke="#0A0A0A" stroke-width="1.4" stroke-linecap="round" opacity="0.32"/><line x1="470.0" y1="326.0" x2="620.0" y2="248.0" stroke="#0A0A0A" stroke-width="1.4" stroke-linecap="round" opacity="0.32"/><line x1="1130.0" y1="326.0" x2="1280.0" y2="248.0" stroke="#0A0A0A" stroke-width="1.4" stroke-linecap="round" opacity="0.32"/><line x1="590.0" y1="326.0" x2="740.0" y2="248.0" stroke="#0A0A0A" stroke-width="1.4" stroke-linecap="round" opacity="0.32"/><line x1="300.0" y1="800.0" x2="450.0" y2="722.0" stroke="#0A0A0A" stroke-width="1.4" stroke-linecap="round" opacity="0.32"/><line x1="720.0" y1="326.0" x2="870.0" y2="248.0" stroke="#0A0A0A" stroke-width="1.4" stroke-linecap="round" opacity="0.32"/><line x1="470.0" y1="800.0" x2="620.0" y2="722.0" stroke="#0A0A0A" stroke-width="1.4" stroke-linecap="round" opacity="0.32"/><line x1="1010.0" y1="326.0" x2="1160.0" y2="248.0" stroke="#0A0A0A" stroke-width="1.4" stroke-linecap="round" opacity="0.32"/><line x1="1300.0" y1="800.0" x2="1450.0" y2="722.0" stroke="#0A0A0A" stroke-width="1.4" stroke-linecap="round" opacity="0.32"/><line x1="880.0" y1="326.0" x2="1030.0" y2="248.0" stroke="#0A0A0A" stroke-width="1.4" stroke-linecap="round" opacity="0.32"/><line x1="1130.0" y1="800.0" x2="1280.0" y2="722.0" stroke="#0A0A0A" stroke-width="1.4" stroke-linecap="round" opacity="0.32"/><line x1="280.0" y1="800.0" x2="430.0" y2="722.0" stroke="#0A0A0A" stroke-width="1.4" stroke-linecap="round" opacity="0.32"/><line x1="490.0" y1="800.0" x2="640.0" y2="722.0" stroke="#0A0A0A" stroke-width="1.4" stroke-linecap="round" opacity="0.32"/><line x1="280.0" y1="818.0" x2="430.0" y2="740.0" stroke="#0A0A0A" stroke-width="1.4" stroke-linecap="round" opacity="0.32"/><line x1="490.0" y1="818.0" x2="640.0" y2="740.0" stroke="#0A0A0A" stroke-width="1.4" stroke-linecap="round" opacity="0.32"/><line x1="1110.0" y1="800.0" x2="1260.0" y2="722.0" stroke="#0A0A0A" stroke-width="1.4" stroke-linecap="round" opacity="0.32"/><line x1="1320.0" y1="800.0" x2="1470.0" y2="722.0" stroke="#0A0A0A" stroke-width="1.4" stroke-linecap="round" opacity="0.32"/><line x1="1110.0" y1="818.0" x2="1260.0" y2="740.0" stroke="#0A0A0A" stroke-width="1.4" stroke-linecap="round" opacity="0.32"/><line x1="1320.0" y1="818.0" x2="1470.0" y2="740.0" stroke="#0A0A0A" stroke-width="1.4" stroke-linecap="round" opacity="0.32"/><line x1="470.0" y1="560.0" x2="620.0" y2="482.0" stroke="#0A0A0A" stroke-width="1.4" stroke-linecap="round" opacity="0.32"/><line x1="1130.0" y1="560.0" x2="1280.0" y2="482.0" stroke="#0A0A0A" stroke-width="1.4" stroke-linecap="round" opacity="0.32"/><line x1="470.0" y1="586.0" x2="620.0" y2="508.0" stroke="#0A0A0A" stroke-width="1.4" stroke-linecap="round" opacity="0.32"/><line x1="1130.0" y1="586.0" x2="1280.0" y2="508.0" stroke="#0A0A0A" stroke-width="1.4" stroke-linecap="round" opacity="0.32"/><line x1="470.0" y1="300.0" x2="1130.0" y2="300.0" stroke="#0A0A0A" stroke-width="2" stroke-linecap="round" opacity="1"/><line x1="470.0" y1="326.0" x2="1130.0" y2="326.0" stroke="#0A0A0A" stroke-width="2" stroke-linecap="round" opacity="1"/><line x1="470.0" y1="300.0" x2="470.0" y2="326.0" stroke="#0A0A0A" stroke-width="2" stroke-linecap="round" opacity="1"/><line x1="1130.0" y1="300.0" x2="1130.0" y2="326.0" stroke="#0A0A0A" stroke-width="2" stroke-linecap="round" opacity="1"/><line x1="590.0" y1="326.0" x2="300.0" y2="800.0" stroke="#0A0A0A" stroke-width="2" stroke-linecap="round" opacity="1"/><line x1="720.0" y1="326.0" x2="470.0" y2="800.0" stroke="#0A0A0A" stroke-width="2" stroke-linecap="round" opacity="1"/><line x1="1010.0" y1="326.0" x2="1300.0" y2="800.0" stroke="#0A0A0A" stroke-width="2" stroke-linecap="round" opacity="1"/><line x1="880.0" y1="326.0" x2="1130.0" y2="800.0" stroke="#0A0A0A" stroke-width="2" stroke-linecap="round" opacity="1"/><line x1="280.0" y1="800.0" x2="490.0" y2="800.0" stroke="#0A0A0A" stroke-width="2" stroke-linecap="round" opacity="1"/><line x1="280.0" y1="818.0" x2="490.0" y2="818.0" stroke="#0A0A0A" stroke-width="2" stroke-linecap="round" opacity="1"/><line x1="280.0" y1="800.0" x2="280.0" y2="818.0" stroke="#0A0A0A" stroke-width="2" stroke-linecap="round" opacity="1"/><line x1="490.0" y1="800.0" x2="490.0" y2="818.0" stroke="#0A0A0A" stroke-width="2" stroke-linecap="round" opacity="1"/><line x1="1110.0" y1="800.0" x2="1320.0" y2="800.0" stroke="#0A0A0A" stroke-width="2" stroke-linecap="round" opacity="1"/><line x1="1110.0" y1="818.0" x2="1320.0" y2="818.0" stroke="#0A0A0A" stroke-width="2" stroke-linecap="round" opacity="1"/><line x1="1110.0" y1="800.0" x2="1110.0" y2="818.0" stroke="#0A0A0A" stroke-width="2" stroke-linecap="round" opacity="1"/><line x1="1320.0" y1="800.0" x2="1320.0" y2="818.0" stroke="#0A0A0A" stroke-width="2" stroke-linecap="round" opacity="1"/><line x1="470.0" y1="560.0" x2="1130.0" y2="560.0" stroke="#0A0A0A" stroke-width="2" stroke-linecap="round" opacity="1"/><line x1="470.0" y1="586.0" x2="1130.0" y2="586.0" stroke="#0A0A0A" stroke-width="2" stroke-linecap="round" opacity="1"/><line x1="470.0" y1="560.0" x2="470.0" y2="586.0" stroke="#0A0A0A" stroke-width="2" stroke-linecap="round" opacity="1"/><line x1="1130.0" y1="560.0" x2="1130.0" y2="586.0" stroke="#0A0A0A" stroke-width="2" stroke-linecap="round" opacity="1"/><line x1="720.0" y1="326.0" x2="1130.0" y2="560.0" stroke="#0A0A0A" stroke-width="2" stroke-linecap="round" opacity="1"/><line x1="880.0" y1="326.0" x2="470.0" y2="560.0" stroke="#0A0A0A" stroke-width="2" stroke-linecap="round" opacity="1"/><line x1="470.0" y1="586.0" x2="470.0" y2="800.0" stroke="#0A0A0A" stroke-width="2" stroke-linecap="round" opacity="1"/><line x1="1130.0" y1="586.0" x2="1130.0" y2="800.0" stroke="#0A0A0A" stroke-width="2" stroke-linecap="round" opacity="1"/></svg>